<?xml version="1.0" encoding="UTF-8"?>
<svg id="SVGDoc" width="38" height="38" xmlns="http://www.w3.org/2000/svg" version="1.1" xmlns:xlink="http://www.w3.org/1999/xlink" xmlns:avocode="https://avocode.com/" viewBox="0 0 38 38"><defs></defs><desc>Generated with Avocode.</desc><g><g><title>Forma 1</title><path d="M23.45308,17.88637c0,2.45597 -1.99718,4.45314 -4.45309,4.45314c-2.456,0 -4.45318,-1.99717 -4.45318,-4.45314c0,-2.45597 1.99718,-4.45314 4.45318,-4.45314c2.4559,0 4.45309,1.99717 4.45309,4.45314zM37.99995,16.77288v4.45314c0,0.54488 -0.39358,1.00919 -0.9306,1.09823l-2.95744,0.48042c-0.37069,1.47646 -0.95339,2.87915 -1.73731,4.18685l1.7004,2.38176c0.31624,0.44268 0.26636,1.04947 -0.11854,1.43406l-3.14856,3.1484c-0.387,0.38417 -0.99258,0.43293 -1.43394,0.11873l-2.38209,-1.70035c-1.30787,0.78403 -2.71034,1.36664 -4.18673,1.73724l-0.48056,2.95759c-0.08917,0.53682 -0.55342,0.93074 -1.09806,0.93074h-4.45318c-0.54464,0 -1.00889,-0.39392 -1.09797,-0.93074l-0.48056,-2.95717c-1.47638,-0.37102 -2.87886,-0.95364 -4.18673,-1.73766l-2.38209,1.70035c-0.4425,0.31463 -1.05019,0.26544 -1.43394,-0.1183l-3.14856,-3.1484c-0.3849,-0.38502 -0.43488,-0.9918 -0.11854,-1.43406l1.7004,-2.38219c-0.78382,-1.3077 -1.36662,-2.71038 -1.73731,-4.18642l-2.95753,-0.48085c-0.53701,-0.08905 -0.9306,-0.55336 -0.9306,-1.09823v-4.45314c0,-0.54445 0.39358,-1.00876 0.9306,-1.09781l2.95744,-0.48085c0.37069,-1.47604 0.95339,-2.87872 1.73731,-4.18685l-1.70031,-2.38176c-0.31633,-0.44268 -0.26646,-1.04904 0.11845,-1.43406l3.14856,-3.1484c0.38376,-0.38586 0.99144,-0.43717 1.43394,-0.11873l2.38209,1.70077c1.30787,-0.78403 2.71034,-1.36664 4.18673,-1.73766l0.48056,-2.95717c0.08917,-0.53724 0.55342,-0.93074 1.09806,-0.93074h4.45318c0.54464,0 1.00889,0.3935 1.09797,0.93074l0.48056,2.95717c1.47638,0.37102 2.87886,0.95364 4.18673,1.73724l2.38209,-1.70035c0.44136,-0.31844 1.04694,-0.26714 1.43394,0.11873l3.14856,3.1484c0.3849,0.38502 0.43488,0.99138 0.11854,1.43406l-1.7004,2.38176c0.78382,1.30812 1.36662,2.71081 1.73731,4.18685l2.95753,0.48085c0.53701,0.08905 0.9306,0.55336 0.9306,1.09781zM31.24603,18.99944c0,-6.75221 -5.49355,-12.24591 -12.24604,-12.24591c-6.75259,0 -12.24613,5.4937 -12.24613,12.24591c0,6.75264 5.49355,12.24634 12.24613,12.24634c6.75249,0 12.24604,-5.4937 12.24604,-12.24634zM26.41768,25.67406c-1.83525,2.03788 -4.46558,3.34515 -7.41768,3.34515c-2.95219,0 -5.58252,-1.30728 -7.41787,-3.34515c0.42944,-1.39166 1.20792,-2.63109 2.27518,-3.5771c1.22585,1.49427 3.0633,2.46911 5.14269,2.46911c2.0793,0 3.91674,-0.97484 5.14259,-2.46911c1.06726,0.94601 1.84565,2.18544 2.27509,3.5771z" fill="#ffc000" fill-opacity="1"></path></g></g></svg>