<?xml version="1.0" encoding="UTF-8"?>
<svg id="SVGDoc" width="49" height="37" xmlns="http://www.w3.org/2000/svg" version="1.1" xmlns:xlink="http://www.w3.org/1999/xlink" xmlns:avocode="https://avocode.com/" viewBox="0 0 49 37"><defs></defs><desc>Generated with Avocode.</desc><g><g><title>Forma 1</title><path d="M48.99991,34.15334c0,1.57187 -1.28536,2.84607 -2.87104,2.84607h-43.25781c-1.58577,0 -2.87113,-1.2742 -2.87113,-2.84607c0,-1.57187 1.28536,-2.84607 2.87113,-2.84607h43.25781c1.58567,0 2.87104,1.2742 2.87104,2.84607zM46.03313,24.19208v4.26911h-43.06641v-4.26911c0,-6.97737 3.39174,-13.15248 8.6133,-17.04802v5.66331c0,0.78657 0.64211,1.42304 1.43557,1.42304c0.79346,0 1.43557,-0.63647 1.43557,-1.42304v-7.4879c0.91782,-0.4817 1.88065,-0.88579 2.87104,-1.23307v11.56704c0,0.78657 0.64211,1.42304 1.43557,1.42304c0.79346,0 1.43557,-0.63647 1.43557,-1.42304v-14.23079c0,-0.7853 0.64354,-1.42304 1.43557,-1.42304h5.74217c0.79203,0 1.43557,0.63774 1.43557,1.42304v14.23079c0,0.78657 0.64201,1.42304 1.43547,1.42304c0.79355,0 1.43557,-0.63647 1.43557,-1.42304v-11.56704c0.99049,0.34728 1.95322,0.75138 2.87113,1.23265v7.48832c0,0.78657 0.64201,1.42304 1.43557,1.42304c0.79346,0 1.43547,-0.63647 1.43547,-1.42304v-5.66331c5.22165,3.89554 8.6133,10.07065 8.6133,17.04802z" fill="#ffc000" fill-opacity="1"></path></g></g></svg>