<?xml version="1.0" encoding="UTF-8"?>
<svg id="SVGDoc" width="34" height="38" xmlns="http://www.w3.org/2000/svg" version="1.1" xmlns:xlink="http://www.w3.org/1999/xlink" xmlns:avocode="https://avocode.com/" viewBox="0 0 34 38"><defs></defs><desc>Generated with Avocode.</desc><g><g><title>Forma 1</title><path d="M22.65261,22.96622v0.79378c0,0.29385 -0.10443,0.427 -0.31691,0.63477l-1.83725,1.79491l1.25837,6.14543c0.28553,1.39759 -0.08078,2.83081 -1.00603,3.93201c-0.92421,1.1012 -2.29101,1.73258 -3.74975,1.73258c-1.45874,0 -2.82564,-0.63138 -3.74975,-1.73258c-0.92525,-1.1012 -1.29156,-2.53441 -1.00603,-3.93201l1.25837,-6.14543l-1.83725,-1.79491c-0.21248,-0.20777 -0.33207,-0.48848 -0.33207,-0.78275v-1.01512c0,-0.33583 0.27895,-0.60806 0.62284,-0.60806h10.08787c0.34389,0 0.60759,0.64113 0.60759,0.97738zM34,7.7466v2.7672c0,1.46077 -1.02015,2.76678 -2.47078,3.18741l-12.58001,3.49695c-0.47588,0.13314 -0.81596,0.57541 -0.81596,1.06219v1.43024h-2.2666v-1.43024c0,-1.46035 1.02005,-2.76636 2.47078,-3.18741l12.58001,-3.49695c0.47579,-0.13272 0.81596,-0.57541 0.81596,-1.06261v-2.76678c0,-0.6195 -0.49858,-1.10671 -1.13335,-1.10671h-1.13344v1.10671c0,1.83731 -1.51863,3.32013 -3.39994,3.32013h-10.20002v2.21385c0,1.22247 -1.0148,2.21342 -2.26669,2.21342c-1.25189,0 -2.26669,-0.99095 -2.26669,-2.21342v-1.10671c0,-0.61145 -0.50745,-1.10714 -1.13335,-1.10714c-0.6259,0 -1.13335,0.49569 -1.13335,1.10714v3.32013c0,1.22205 -1.0148,2.21342 -2.2666,2.21342c-1.25198,0 -2.26679,-0.99138 -2.26679,-2.21342v-4.42727h-1.13335c-1.88131,0 -3.39994,-1.48282 -3.39994,-3.32013v-4.42685c0,-1.83731 1.51863,-3.32013 3.39994,-3.32013h22.66684c1.88131,0 3.39994,1.48282 3.39994,3.32013v1.10671h1.13344c1.88131,0 3.39994,1.48325 3.39994,3.32013z" fill="#ffc000" fill-opacity="1"></path></g></g></svg>