<?xml version="1.0" encoding="UTF-8"?>
<svg id="SVGDoc" width="38" height="38" xmlns="http://www.w3.org/2000/svg" version="1.1" xmlns:xlink="http://www.w3.org/1999/xlink" xmlns:avocode="https://avocode.com/" viewBox="0 0 38 38"><defs></defs><desc>Generated with Avocode.</desc><g><g><title>Forma 1</title><path d="M27.09846,25.06403l-14.16397,-14.16336l9.99565,-9.99517c0.49181,-0.49187 1.28918,-0.49187 1.78089,0l1.28689,1.2865c0.37012,0.3706 0.47274,0.93074 0.25759,1.4082l-0.33951,0.75265l0.70887,-0.34092c0.48208,-0.23237 1.05829,-0.13442 1.43681,0.24424l4.09946,4.09907c0.42562,0.4253 0.49057,1.09272 0.15535,1.59222l-2.6845,4.00027l3.97377,-2.70063c0.49992,-0.33965 1.17092,-0.27647 1.59836,0.15095l1.8899,1.88989c0.49181,0.49187 0.49181,1.28904 0,1.78092zM25.23727,26.92509l-2.89364,2.89314c-0.49171,0.49187 -1.28918,0.49187 -1.78099,0l-2.74477,-2.74473c-0.52757,-0.52707 -1.25732,-0.78275 -2.0031,-0.70134c-0.74339,0.08184 -1.40018,0.48975 -1.80178,1.12028c-5.14088,8.06458 -5.89294,8.81638 -6.14014,9.06359c-1.77107,1.77116 -4.65612,1.77455 -6.43091,0c-1.77298,-1.77328 -1.77298,-4.65794 0,-6.4308c0.247,-0.24678 0.99888,-0.99901 9.0642,-6.13992c0.63152,-0.4024 1.04055,-1.05964 1.12209,-1.80254c0.08163,-0.74374 -0.1749,-1.4735 -0.70372,-2.00226l-2.74477,-2.74473c-0.23623,-0.23576 -0.36888,-0.55632 -0.36888,-0.89046c0,-0.33371 0.13275,-0.65385 0.36888,-0.89046l2.89354,-2.89314zM5.99327,32.00493c-0.69513,-0.69498 -1.82209,-0.69498 -2.51722,0c-0.69513,0.69498 -0.69513,1.82205 0,2.51703c0.69504,0.69498 1.82209,0.69498 2.51722,0c0.69513,-0.69498 0.69513,-1.82205 0,-2.51703z" fill="#ffffff" fill-opacity="1"></path></g></g></svg>