<svg xmlns="http://www.w3.org/2000/svg" width="38" height="23" viewBox="0 0 38 23"><g><g><path fill="#fff" d="M37.701 10.592a1.546 1.546 0 0 1 0 1.823C32.843 18.966 26.26 23 19 23 11.74 23 5.155 18.966.297 12.408a1.546 1.546 0 0 1 0-1.824C5.155 4.033 11.739 0 18.999 0c7.26 0 13.844 4.033 18.702 10.592zm-10.727 1.436c.304-4.9-3.676-8.934-8.496-8.626-3.98.252-7.205 3.528-7.454 7.569-.303 4.901 3.677 8.935 8.496 8.627 3.972-.26 7.198-3.536 7.454-7.57zm-7.695 3.829c-2.596.165-4.742-2.005-4.57-4.641.132-2.179 1.873-3.939 4.018-4.08 2.596-.167 4.742 2.004 4.57 4.64-.14 2.186-1.88 3.947-4.018 4.08z"/></g></g></svg>